<svg xmlns="http://www.w3.org/2000/svg" xmlns:xlink="http://www.w3.org/1999/xlink" width="2000" zoomAndPan="magnify" viewBox="0 0 1500 787.499972" height="1050" preserveAspectRatio="xMidYMid meet" version="1.0"><path fill="#6b72c4" d="M 992.175781 493.488281 C 940.792969 524.910156 913.0625 523.234375 909.773438 510.15625 C 906.484375 497.078125 945.855469 463.832031 934.5 429.964844 C 934.5 429.964844 1072.230469 393.785156 1072.230469 393.785156 C 1072.230469 393.785156 1043.558594 462.0625 992.175781 493.488281 Z M 992.175781 493.488281 " fill-opacity="1" fill-rule="nonzero"/><path fill="#9dc7e2" d="M 1220.835938 299.097656 C 1220.835938 357.839844 1157.640625 405.460938 1079.6875 405.460938 C 1001.730469 405.460938 938.535156 357.839844 938.535156 299.097656 C 938.535156 240.355469 1001.730469 192.734375 1079.6875 192.734375 C 1157.640625 192.734375 1220.835938 240.355469 1220.835938 299.097656 Z M 1220.835938 299.097656 " fill-opacity="1" fill-rule="nonzero"/><path fill="#9dc7e2" d="M 1193.683594 340.039062 C 1193.683594 340.039062 1276.085938 331.265625 1276.085938 373.460938 C 1276.085938 415.65625 1145.988281 408.621094 1145.988281 408.621094 C 1145.988281 408.621094 970.183594 487.734375 750.421875 454.332031 C 530.664062 420.929688 405.203125 373.1875 343.921875 393.257812 C 343.921875 393.257812 343.773438 419.785156 315.699219 465.09375 C 301.171875 488.539062 259.300781 522.210938 242.128906 513.265625 C 234.53125 509.308594 227.238281 474.828125 253.628906 431.847656 C 277.980469 392.1875 305.832031 366.691406 305.832031 366.691406 C 305.832031 366.691406 278.367188 340.878906 255.65625 306.3125 C 233.488281 272.574219 228.171875 226.378906 244.582031 218.992188 C 260.992188 211.601562 297.03125 231.078125 314.328125 265.371094 C 332.136719 300.671875 342.613281 341.144531 342.613281 341.144531 C 342.613281 341.144531 394.523438 335.421875 472.648438 299.097656 C 577.796875 250.207031 741.78125 176.664062 990.921875 216.402344 " fill-opacity="1" fill-rule="nonzero"/><path fill="#15130d" d="M 1152.582031 350.824219 C 1152.582031 359.929688 1145.203125 367.308594 1136.101562 367.308594 C 1126.996094 367.308594 1119.617188 359.929688 1119.617188 350.824219 C 1119.617188 341.722656 1126.996094 334.34375 1136.101562 334.34375 C 1145.203125 334.34375 1152.582031 341.722656 1152.582031 350.824219 Z M 1152.582031 350.824219 " fill-opacity="1" fill-rule="nonzero"/><path fill="#6b72c4" d="M 1173.097656 383.847656 C 1185.257812 386.640625 1197.757812 388.039062 1210.234375 388.003906 C 1222.664062 387.96875 1235.113281 386.519531 1247.222656 383.710938 C 1253.992188 382.140625 1260.652344 380.128906 1267.15625 377.695312 C 1268.402344 377.230469 1269.386719 375.953125 1268.9375 374.5625 C 1268.542969 373.34375 1267.140625 372.285156 1265.804688 372.785156 C 1260.085938 374.925781 1254.246094 376.738281 1248.320312 378.210938 C 1245.359375 378.945312 1242.375 379.597656 1239.375 380.167969 C 1237.898438 380.445312 1236.417969 380.703125 1234.929688 380.941406 C 1234.1875 381.0625 1233.445312 381.175781 1232.699219 381.285156 C 1232.351562 381.335938 1232 381.386719 1231.648438 381.433594 C 1231.472656 381.460938 1231.300781 381.484375 1231.125 381.507812 C 1231.566406 381.449219 1230.75 381.554688 1230.75 381.554688 C 1218.683594 383.121094 1206.441406 383.332031 1194.328125 382.175781 C 1192.613281 382.011719 1190.898438 381.820312 1189.1875 381.601562 C 1189.011719 381.578125 1188.835938 381.554688 1188.660156 381.53125 C 1188.570312 381.519531 1188.484375 381.507812 1188.394531 381.496094 C 1188.589844 381.523438 1188.597656 381.523438 1188.417969 381.5 C 1188.023438 381.445312 1187.628906 381.386719 1187.234375 381.332031 C 1186.359375 381.203125 1185.484375 381.070312 1184.609375 380.929688 C 1181.203125 380.375 1177.816406 379.710938 1174.453125 378.9375 C 1173.15625 378.640625 1171.632812 379.335938 1171.320312 380.71875 C 1171.023438 382.015625 1171.710938 383.53125 1173.097656 383.847656 Z M 1173.097656 383.847656 " fill-opacity="1" fill-rule="nonzero"/><path fill="#6b72c4" d="M 994.472656 235.261719 C 997.21875 233.585938 1000.023438 232.007812 1002.886719 230.542969 C 1004.355469 229.789062 1005.835938 229.066406 1007.332031 228.371094 C 1008.003906 228.058594 1008.679688 227.75 1009.359375 227.449219 C 1009.734375 227.28125 1010.113281 227.113281 1010.492188 226.949219 C 1010.644531 226.886719 1010.792969 226.820312 1010.945312 226.753906 C 1011.097656 226.691406 1011.25 226.625 1011.402344 226.558594 C 1011.210938 226.640625 1011.195312 226.644531 1011.363281 226.578125 C 1017.332031 224.074219 1023.488281 222.011719 1029.757812 220.402344 C 1032.875 219.601562 1036.019531 218.914062 1039.183594 218.335938 C 1040.726562 218.054688 1042.273438 217.800781 1043.824219 217.574219 C 1044.234375 217.515625 1044.640625 217.457031 1045.050781 217.402344 C 1044.609375 217.464844 1045.03125 217.402344 1045.109375 217.394531 C 1045.355469 217.363281 1045.601562 217.332031 1045.84375 217.300781 C 1046.664062 217.195312 1047.484375 217.101562 1048.304688 217.011719 C 1054.699219 216.328125 1061.144531 216.097656 1067.574219 216.335938 C 1071.199219 216.472656 1074.820312 216.757812 1078.421875 217.191406 C 1078.832031 217.242188 1079.238281 217.292969 1079.648438 217.347656 C 1080.433594 217.449219 1079.359375 217.304688 1079.828125 217.371094 C 1080.117188 217.410156 1080.402344 217.449219 1080.6875 217.492188 C 1081.585938 217.621094 1082.480469 217.761719 1083.375 217.910156 C 1085.167969 218.207031 1086.949219 218.542969 1088.726562 218.914062 C 1090.027344 219.1875 1091.539062 218.535156 1091.859375 217.136719 C 1092.148438 215.859375 1091.476562 214.292969 1090.082031 214.003906 C 1077.101562 211.289062 1063.726562 210.503906 1050.519531 211.699219 C 1037.308594 212.898438 1024.273438 215.933594 1011.953125 220.867188 C 1005.007812 223.648438 998.289062 226.964844 991.902344 230.863281 C 990.765625 231.558594 990.234375 233.175781 990.988281 234.347656 C 991.726562 235.488281 993.257812 236.003906 994.472656 235.261719 Z M 994.472656 235.261719 " fill-opacity="1" fill-rule="nonzero"/><path fill="#6b72c4" d="M 281.375 253.160156 C 281.726562 253.460938 282.074219 253.765625 282.421875 254.074219 C 282.59375 254.230469 282.765625 254.382812 282.9375 254.539062 C 283.027344 254.617188 283.109375 254.695312 283.195312 254.773438 C 283.496094 255.039062 282.941406 254.53125 283.234375 254.804688 C 283.96875 255.492188 284.699219 256.179688 285.417969 256.882812 C 286.796875 258.238281 288.132812 259.632812 289.429688 261.066406 C 292.070312 263.992188 294.53125 267.082031 296.800781 270.304688 C 297.359375 271.09375 297.902344 271.890625 298.4375 272.699219 C 298.566406 272.890625 298.691406 273.085938 298.820312 273.277344 C 298.59375 272.9375 298.898438 273.40625 298.96875 273.515625 C 299.238281 273.9375 299.507812 274.363281 299.769531 274.792969 C 300.804688 276.46875 301.789062 278.179688 302.722656 279.914062 C 304.570312 283.355469 306.214844 286.902344 307.636719 290.539062 C 308.046875 291.582031 308.4375 292.632812 308.8125 293.6875 C 308.992188 294.199219 309.167969 294.710938 309.335938 295.222656 C 309.375 295.332031 309.410156 295.445312 309.445312 295.554688 C 309.574219 295.933594 309.339844 295.207031 309.457031 295.59375 C 309.539062 295.851562 309.625 296.105469 309.703125 296.363281 C 310.371094 298.503906 310.964844 300.667969 311.480469 302.851562 C 311.789062 304.136719 313.058594 305.191406 314.4375 304.871094 C 315.71875 304.570312 316.785156 303.296875 316.457031 301.917969 C 314.574219 294 311.734375 286.296875 307.992188 279.070312 C 304.238281 271.816406 299.605469 264.980469 294.21875 258.839844 C 291.144531 255.335938 287.808594 252.066406 284.285156 249.019531 C 283.28125 248.148438 281.445312 248.5625 280.757812 249.632812 C 279.957031 250.882812 280.300781 252.230469 281.375 253.160156 Z M 281.375 253.160156 " fill-opacity="1" fill-rule="nonzero"/><path fill="#6b72c4" d="M 314.785156 431.738281 C 308.667969 439.753906 302.554688 447.769531 296.441406 455.785156 C 296.441406 455.785156 291.199219 462.652344 291.199219 462.652344 C 290.394531 463.707031 290.695312 465.460938 291.8125 466.179688 C 293.007812 466.945312 294.480469 466.6875 295.339844 465.5625 C 301.453125 457.546875 307.570312 449.535156 313.683594 441.519531 C 313.683594 441.519531 318.925781 434.648438 318.925781 434.648438 C 319.730469 433.59375 319.429688 431.839844 318.308594 431.125 C 317.117188 430.359375 315.644531 430.613281 314.785156 431.738281 Z M 314.785156 431.738281 " fill-opacity="1" fill-rule="nonzero"/><path fill="#6b72c4" d="M 662.71875 418.550781 C 674.148438 420.308594 685.574219 422.066406 697.003906 423.824219 C 698.3125 424.027344 699.804688 423.492188 700.136719 422.046875 C 700.414062 420.828125 699.765625 419.128906 698.355469 418.914062 C 698.355469 418.914062 664.074219 413.636719 664.074219 413.636719 C 662.765625 413.4375 661.269531 413.96875 660.941406 415.417969 C 660.664062 416.632812 661.3125 418.332031 662.71875 418.550781 Z M 662.71875 418.550781 " fill-opacity="1" fill-rule="nonzero"/><path fill="#6b72c4" d="M 598.113281 402.726562 C 608.707031 405.121094 619.304688 407.515625 629.902344 409.90625 C 632.929688 410.589844 635.957031 411.273438 638.988281 411.957031 C 640.28125 412.25 641.804688 411.5625 642.121094 410.179688 C 642.414062 408.886719 641.730469 407.359375 640.339844 407.046875 C 629.742188 404.652344 619.148438 402.261719 608.550781 399.867188 C 605.519531 399.183594 602.492188 398.5 599.464844 397.816406 C 598.167969 397.523438 596.648438 398.210938 596.332031 399.59375 C 596.039062 400.886719 596.722656 402.414062 598.113281 402.726562 Z M 598.113281 402.726562 " fill-opacity="1" fill-rule="nonzero"/><path fill="#6b72c4" d="M 653.492188 396.136719 C 664.039062 397.894531 674.585938 399.652344 685.136719 401.410156 C 686.445312 401.628906 687.941406 401.066406 688.269531 399.628906 C 688.546875 398.402344 687.894531 396.730469 686.492188 396.496094 C 675.941406 394.738281 665.394531 392.980469 654.84375 391.222656 C 653.535156 391.003906 652.039062 391.566406 651.710938 393 C 651.429688 394.230469 652.085938 395.902344 653.492188 396.136719 Z M 653.492188 396.136719 " fill-opacity="1" fill-rule="nonzero"/><path fill="#6b72c4" d="M 981.171875 239.53125 C 981.171875 243.105469 973.199219 246 963.371094 246 C 953.539062 246 945.570312 243.105469 945.570312 239.53125 C 945.570312 235.957031 953.539062 233.0625 963.371094 233.0625 C 973.199219 233.0625 981.171875 235.957031 981.171875 239.53125 Z M 981.171875 239.53125 " fill-opacity="1" fill-rule="nonzero"/><path fill="#6b72c4" d="M 629.570312 264.992188 C 630.605469 269.046875 617.148438 275.988281 599.511719 280.496094 C 581.871094 285.003906 566.734375 285.375 565.695312 281.320312 C 564.660156 277.265625 578.121094 270.324219 595.757812 265.816406 C 613.394531 261.308594 628.535156 260.9375 629.570312 264.992188 Z M 629.570312 264.992188 " fill-opacity="1" fill-rule="nonzero"/><path fill="#6b72c4" d="M 592.484375 295.597656 C 593.519531 299.652344 580.058594 306.59375 562.421875 311.101562 C 544.785156 315.613281 529.644531 315.980469 528.609375 311.925781 C 527.574219 307.871094 541.03125 300.929688 558.667969 296.421875 C 576.308594 291.914062 591.445312 291.542969 592.484375 295.597656 Z M 592.484375 295.597656 " fill-opacity="1" fill-rule="nonzero"/><path fill="#6b72c4" d="M 680.628906 273.066406 C 681.417969 276.148438 668.328125 282.15625 651.394531 286.484375 C 634.464844 290.8125 620.097656 291.824219 619.308594 288.738281 C 618.523438 285.65625 631.609375 279.648438 648.542969 275.320312 C 665.472656 270.992188 679.839844 269.984375 680.628906 273.066406 Z M 680.628906 273.066406 " fill-opacity="1" fill-rule="nonzero"/><path fill="#6b72c4" d="M 833.492188 520.261719 C 768.882812 543.996094 745.949219 532.128906 751.484375 513.667969 C 757.015625 495.207031 812.394531 464.882812 824.261719 416.09375 C 824.261719 416.09375 966.664062 416.09375 966.664062 416.09375 C 966.664062 416.09375 898.101562 496.527344 833.492188 520.261719 Z M 833.492188 520.261719 " fill-opacity="1" fill-rule="nonzero"/><path fill="#9dc7e2" d="M 910.429688 447.316406 C 904.363281 453.867188 897.804688 459.957031 890.816406 465.515625 C 890.394531 465.851562 889.96875 466.1875 889.542969 466.519531 C 889.445312 466.59375 889.347656 466.671875 889.25 466.746094 C 888.917969 467.007812 889.507812 466.550781 889.171875 466.808594 C 888.941406 466.984375 888.710938 467.160156 888.480469 467.335938 C 887.589844 468.015625 886.691406 468.6875 885.785156 469.351562 C 883.976562 470.675781 882.144531 471.96875 880.285156 473.222656 C 876.605469 475.710938 872.832031 478.058594 868.972656 480.261719 C 864.574219 482.773438 860.0625 485.09375 855.464844 487.214844 C 854.25 487.777344 853.855469 489.621094 854.550781 490.699219 C 855.355469 491.949219 856.738281 492.210938 858.035156 491.613281 C 866.214844 487.835938 874.105469 483.4375 881.617188 478.453125 C 889.230469 473.398438 896.476562 467.761719 903.242188 461.613281 C 906.988281 458.207031 910.589844 454.636719 914.03125 450.917969 C 914.9375 449.941406 915.070312 448.273438 914.03125 447.316406 C 913.046875 446.414062 911.394531 446.273438 910.429688 447.316406 Z M 910.429688 447.316406 " fill-opacity="1" fill-rule="nonzero"/><path fill="#9dc7e2" d="M 861.929688 471.988281 C 852.550781 476.964844 843.171875 481.941406 833.792969 486.921875 C 832.613281 487.546875 832.15625 489.28125 832.878906 490.40625 C 833.652344 491.605469 835.101562 491.988281 836.363281 491.320312 C 845.742188 486.339844 855.121094 481.363281 864.5 476.386719 C 865.675781 475.761719 866.136719 474.023438 865.410156 472.902344 C 864.640625 471.703125 863.1875 471.320312 861.929688 471.988281 Z M 861.929688 471.988281 " fill-opacity="1" fill-rule="nonzero"/></svg>